<svg width="79" height="78" viewBox="0 0 79 78" fill="none" xmlns="http://www.w3.org/2000/svg">
<g filter="url(#filter0_d_13_5032)">
<path fill-rule="evenodd" clip-rule="evenodd" d="M27.7649 19.5104C25.5336 19.5104 23.8825 21.4525 23.9564 23.5588C24.0274 25.5823 23.9352 28.203 23.2718 30.3402C22.606 32.4835 21.4808 33.8416 19.6425 34.0159V35.9841C21.4808 36.1588 22.606 37.5162 23.2717 39.6598C23.9352 41.797 24.0273 44.4177 23.9564 46.4412C23.8824 48.5472 25.5335 50.4896 27.7652 50.4896H50.6291C52.8605 50.4896 54.5112 48.5475 54.4373 46.4412C54.3663 44.4177 54.4585 41.797 55.122 39.6598C55.7878 37.5162 56.9102 36.1582 58.7486 35.9841V34.0159C56.9103 33.8412 55.7878 32.4838 55.122 30.3402C54.4585 28.2033 54.3663 25.5823 54.4373 23.5588C54.5112 21.4528 52.8605 19.5104 50.6291 19.5104H27.7646H27.7649ZM46.1551 38.5801C46.1551 41.4803 43.9798 43.2392 40.3697 43.2392H34.2244C34.0486 43.2392 33.88 43.1698 33.7557 43.0462C33.6314 42.9225 33.5616 42.7549 33.5616 42.5801V27.42C33.5616 27.2452 33.6314 27.0775 33.7557 26.9539C33.88 26.8303 34.0486 26.7609 34.2244 26.7609H40.3347C43.3449 26.7609 45.3205 28.3824 45.3205 30.8719C45.3205 32.6192 43.9915 34.1835 42.2984 34.4575V34.5487C44.6032 34.8001 46.1551 36.3875 46.1551 38.5801ZM39.6996 28.8503H36.1957V33.7722H39.1469C41.4283 33.7722 42.6863 32.8586 42.6863 31.2257C42.6861 29.6953 41.6045 28.8503 39.6996 28.8503ZM36.1957 35.7251V41.1491H39.8286C42.204 41.1491 43.4621 40.2012 43.4621 38.4199C43.4621 36.6387 42.1687 35.7248 39.6758 35.7248H36.1957V35.7251Z" fill="#7952B3"/>
</g>
<defs>
<filter id="filter0_d_13_5032" x="0" y="0" width="78.3911" height="78" filterUnits="userSpaceOnUse" color-interpolation-filters="sRGB">
<feFlood flood-opacity="0" result="BackgroundImageFix"/>
<feColorMatrix in="SourceAlpha" type="matrix" values="0 0 0 0 0 0 0 0 0 0 0 0 0 0 0 0 0 0 127 0" result="hardAlpha"/>
<feOffset dy="4"/>
<feGaussianBlur stdDeviation="2"/>
<feComposite in2="hardAlpha" operator="out"/>
<feColorMatrix type="matrix" values="0 0 0 0 0 0 0 0 0 0 0 0 0 0 0 0 0 0 0.25 0"/>
<feBlend mode="normal" in2="BackgroundImageFix" result="effect1_dropShadow_13_5032"/>
<feBlend mode="normal" in="SourceGraphic" in2="effect1_dropShadow_13_5032" result="shape"/>
</filter>
</defs>
</svg>
