<svg width="78" height="78" viewBox="0 0 78 78" fill="none" xmlns="http://www.w3.org/2000/svg">
<g filter="url(#filter0_d_13_5030)">
<path d="M56.1451 15.5555L53.0212 50.5515L38.979 54.4444L24.9755 50.557L21.8549 15.5555H56.1451Z" fill="#264DE4"/>
<path d="M50.3468 48.323L53.0164 18.4174H39V51.4688L50.3468 48.323Z" fill="#2965F1"/>
<path d="M29.0089 31.399L29.3936 35.6917H39V31.399H29.0089Z" fill="#EBEBEB"/>
<path d="M39 22.7102H38.9852H28.2357L28.626 27.003H39V22.7102Z" fill="#EBEBEB"/>
<path d="M39 47.0139V42.5476L38.9812 42.5526L34.2003 41.2617L33.8947 37.838H31.5715H29.5854L30.1868 44.5783L38.9802 47.0194L39 47.0139Z" fill="#EBEBEB"/>
<path d="M44.2713 35.6916L43.773 41.259L38.9852 42.5513V47.0174L47.7856 44.5784L47.8502 43.8531L48.8589 32.5516L48.9637 31.3989L49.7386 22.7102H38.9852V27.003H45.0341L44.6435 31.3989H38.9852V35.6916H44.2713Z" fill="white"/>
</g>
<defs>
<filter id="filter0_d_13_5030" x="0" y="0" width="78" height="78" filterUnits="userSpaceOnUse" color-interpolation-filters="sRGB">
<feFlood flood-opacity="0" result="BackgroundImageFix"/>
<feColorMatrix in="SourceAlpha" type="matrix" values="0 0 0 0 0 0 0 0 0 0 0 0 0 0 0 0 0 0 127 0" result="hardAlpha"/>
<feOffset dy="4"/>
<feGaussianBlur stdDeviation="2"/>
<feComposite in2="hardAlpha" operator="out"/>
<feColorMatrix type="matrix" values="0 0 0 0 0 0 0 0 0 0 0 0 0 0 0 0 0 0 0.25 0"/>
<feBlend mode="normal" in2="BackgroundImageFix" result="effect1_dropShadow_13_5030"/>
<feBlend mode="normal" in="SourceGraphic" in2="effect1_dropShadow_13_5030" result="shape"/>
</filter>
</defs>
</svg>
