<svg width="78" height="78" viewBox="0 0 78 78" fill="none" xmlns="http://www.w3.org/2000/svg">
<g filter="url(#filter0_d_13_5040)">
<path d="M32.5185 54.4444C36.0963 54.4444 39 51.5407 39 47.963V41.4815H32.5185C28.9408 41.4815 26.037 44.3852 26.037 47.963C26.037 51.5407 28.9408 54.4444 32.5185 54.4444Z" fill="#0ACF83"/>
<path d="M26.037 35C26.037 31.4222 28.9408 28.5185 32.5185 28.5185H39V41.4814H32.5185C28.9408 41.4814 26.037 38.5777 26.037 35Z" fill="#A259FF"/>
<path d="M26.037 22.037C26.037 18.4592 28.9408 15.5555 32.5185 15.5555H39V28.5185H32.5185C28.9408 28.5185 26.037 25.6148 26.037 22.037Z" fill="#F24E1E"/>
<path d="M39 15.5555H45.4815C49.0593 15.5555 51.963 18.4592 51.963 22.037C51.963 25.6148 49.0593 28.5185 45.4815 28.5185H39V15.5555Z" fill="#FF7262"/>
<path d="M51.963 35C51.963 38.5777 49.0593 41.4814 45.4815 41.4814C41.9037 41.4814 39 38.5777 39 35C39 31.4222 41.9037 28.5185 45.4815 28.5185C49.0593 28.5185 51.963 31.4222 51.963 35Z" fill="#1ABCFE"/>
</g>
<defs>
<filter id="filter0_d_13_5040" x="0" y="0" width="78" height="78" filterUnits="userSpaceOnUse" color-interpolation-filters="sRGB">
<feFlood flood-opacity="0" result="BackgroundImageFix"/>
<feColorMatrix in="SourceAlpha" type="matrix" values="0 0 0 0 0 0 0 0 0 0 0 0 0 0 0 0 0 0 127 0" result="hardAlpha"/>
<feOffset dy="4"/>
<feGaussianBlur stdDeviation="2"/>
<feComposite in2="hardAlpha" operator="out"/>
<feColorMatrix type="matrix" values="0 0 0 0 0 0 0 0 0 0 0 0 0 0 0 0 0 0 0.25 0"/>
<feBlend mode="normal" in2="BackgroundImageFix" result="effect1_dropShadow_13_5040"/>
<feBlend mode="normal" in="SourceGraphic" in2="effect1_dropShadow_13_5040" result="shape"/>
</filter>
</defs>
</svg>
