<svg width="79" height="78" viewBox="0 0 79 78" fill="none" xmlns="http://www.w3.org/2000/svg">
<g filter="url(#filter0_d_13_5036)">
<path d="M39.1956 16.0355C28.3981 16.0355 19.6425 24.741 19.6425 35.48C19.6425 44.0713 25.245 51.3599 33.0141 53.931C33.9913 54.111 34.3501 53.5092 34.3501 52.9956C34.3501 52.532 34.3319 51.0001 34.3236 49.3754C28.8838 50.5516 27.7359 47.0812 27.7359 47.0812C26.8465 44.8336 25.5649 44.2361 25.5649 44.2361C23.7909 43.0293 25.6986 43.054 25.6986 43.054C27.6622 43.1912 28.6961 45.0578 28.6961 45.0578C30.44 48.0305 33.2702 47.171 34.386 46.6743C34.5615 45.4174 35.0683 44.5597 35.6274 44.0742C31.2845 43.5824 26.7189 41.9151 26.7189 34.4645C26.7189 32.3417 27.4827 30.6071 28.7336 29.2454C28.5306 28.7556 27.8614 26.7779 28.923 24.0996C28.923 24.0996 30.565 23.577 34.3015 26.0927C35.8611 25.6618 37.5339 25.4458 39.1956 25.4385C40.8573 25.4458 42.5313 25.6618 44.094 26.0927C47.8261 23.577 49.4657 24.0996 49.4657 24.0996C50.53 26.7779 49.8605 28.7556 49.6574 29.2454C50.9111 30.6071 51.6697 32.3416 51.6697 34.4645C51.6697 41.9328 47.0955 43.5773 42.7416 44.0586C43.4428 44.6621 44.0677 45.8455 44.0677 47.6595C44.0677 50.2611 44.0451 52.3551 44.0451 52.9956C44.0451 53.513 44.397 54.1194 45.3883 53.9284C53.1531 51.3544 58.7486 44.0684 58.7486 35.48C58.7486 24.741 49.9942 16.0355 39.1956 16.0355Z" fill="#161614"/>
<path d="M26.9658 43.7347C26.9228 43.8312 26.7698 43.8602 26.6307 43.794C26.4888 43.7306 26.4091 43.5988 26.4551 43.5018C26.4973 43.4024 26.6503 43.3746 26.7919 43.4414C26.934 43.5047 27.015 43.6377 26.9658 43.7347ZM27.9276 44.5881C27.8343 44.6741 27.652 44.6341 27.5282 44.4983C27.4004 44.3627 27.3764 44.1815 27.471 44.0941C27.5672 44.0083 27.744 44.0484 27.8722 44.1841C28.0001 44.3212 28.025 44.5013 27.9274 44.5882L27.9276 44.5881ZM28.5875 45.68C28.4675 45.7628 28.2715 45.6852 28.1506 45.5122C28.0308 45.3395 28.0308 45.1321 28.1532 45.0489C28.2746 44.9658 28.4675 45.0406 28.5902 45.2121C28.7098 45.388 28.7098 45.5954 28.5873 45.6801L28.5875 45.68ZM29.7032 46.9447C29.5961 47.0621 29.3679 47.0307 29.2007 46.8703C29.0299 46.7135 28.9822 46.491 29.0897 46.3734C29.1981 46.2557 29.4277 46.2888 29.5961 46.4478C29.7658 46.6043 29.8176 46.8285 29.7034 46.9447H29.7032ZM31.1454 47.3717C31.0983 47.5239 30.8784 47.5931 30.6569 47.5284C30.4358 47.4618 30.291 47.2834 30.3357 47.1295C30.3817 46.9762 30.6025 46.9041 30.8256 46.9733C31.0465 47.0397 31.1915 47.2167 31.1455 47.3717H31.1454ZM32.7869 47.5527C32.7924 47.7131 32.6045 47.8461 32.372 47.849C32.1382 47.854 31.9491 47.7243 31.9466 47.5666C31.9466 47.4046 32.1302 47.2729 32.3639 47.269C32.5964 47.2645 32.7869 47.3933 32.7869 47.5527ZM34.3992 47.4912C34.4271 47.6477 34.2655 47.8084 34.0347 47.8511C33.8077 47.8923 33.5976 47.7958 33.5686 47.6407C33.5404 47.4803 33.7051 47.3197 33.9316 47.278C34.1629 47.2381 34.3698 47.3322 34.3992 47.4912Z" fill="#161614"/>
</g>
<defs>
<filter id="filter0_d_13_5036" x="0" y="0" width="78.3911" height="78" filterUnits="userSpaceOnUse" color-interpolation-filters="sRGB">
<feFlood flood-opacity="0" result="BackgroundImageFix"/>
<feColorMatrix in="SourceAlpha" type="matrix" values="0 0 0 0 0 0 0 0 0 0 0 0 0 0 0 0 0 0 127 0" result="hardAlpha"/>
<feOffset dy="4"/>
<feGaussianBlur stdDeviation="2"/>
<feComposite in2="hardAlpha" operator="out"/>
<feColorMatrix type="matrix" values="0 0 0 0 0 0 0 0 0 0 0 0 0 0 0 0 0 0 0.25 0"/>
<feBlend mode="normal" in2="BackgroundImageFix" result="effect1_dropShadow_13_5036"/>
<feBlend mode="normal" in="SourceGraphic" in2="effect1_dropShadow_13_5036" result="shape"/>
</filter>
</defs>
</svg>
