<svg width="79" height="78" viewBox="0 0 79 78" fill="none" xmlns="http://www.w3.org/2000/svg">
<g filter="url(#filter0_d_13_5031)">
<path d="M39.0731 15.6617L40.1167 17.6109C40.3513 17.9706 40.6055 18.289 40.9049 18.5855C41.7826 19.4474 42.6008 20.3674 43.3537 21.3391C45.122 23.648 46.3146 26.212 47.1663 28.9851C47.6771 30.679 47.9545 32.4167 47.9753 34.1739C48.0608 39.4272 46.2498 43.9379 42.5986 47.6868C42.0046 48.2813 41.363 48.8267 40.6801 49.3176C40.3183 49.3176 40.1473 49.0417 39.9982 48.7877C39.7267 48.3168 39.546 47.7996 39.4654 47.2627C39.3371 46.6271 39.2528 45.9916 39.2943 45.3354V45.0389C39.265 44.9757 38.9461 15.8112 39.0731 15.6617Z" fill="#599636"/>
<path d="M39.0732 15.5973C39.0304 15.5123 38.9876 15.5767 38.9448 15.618C38.9656 16.0433 38.8165 16.4225 38.5831 16.7846C38.3265 17.1443 37.9868 17.4201 37.6459 17.7166C35.7518 19.3474 34.261 21.3172 33.0671 23.5204C31.4786 26.4854 30.6598 29.6632 30.4277 33.0086C30.3213 34.2152 30.8114 38.4733 31.1938 39.7018C32.2374 42.9634 34.1119 45.6963 36.54 48.0684C37.1363 48.6395 37.7742 49.1693 38.4341 49.6785C38.6259 49.6785 38.6467 49.5084 38.6907 49.382C38.7748 49.1116 38.8389 48.8354 38.8825 48.5557L39.3102 45.3792L39.0732 15.5973Z" fill="#6CAC48"/>
<path d="M40.1167 50.6081C40.1595 50.1221 40.3941 49.7186 40.6495 49.3164C40.3929 49.2107 40.2023 49.0004 40.0532 48.7659C39.9246 48.5439 39.8182 48.3098 39.7355 48.0672C39.4373 47.1777 39.3738 46.2444 39.2882 45.3355V44.785C39.1819 44.87 39.1599 45.5894 39.1599 45.6964C39.0977 46.6571 38.9695 47.6124 38.7762 48.5557C38.7127 48.9373 38.6699 49.3176 38.4341 49.6566C38.4341 49.6992 38.4341 49.7417 38.4548 49.8049C38.8385 50.9277 38.9436 52.0712 39.0084 53.2366V53.6619C39.0084 54.1698 38.9876 54.0629 39.4116 54.233C39.5827 54.2962 39.7733 54.3181 39.9444 54.4445C40.0727 54.4445 40.0935 54.3387 40.0935 54.2537L40.03 53.5549V51.6058C40.0092 51.2655 40.0727 50.9277 40.1155 50.6093L40.1167 50.6081Z" fill="#C2BFBF"/>
</g>
<defs>
<filter id="filter0_d_13_5031" x="0" y="0" width="78.3911" height="78" filterUnits="userSpaceOnUse" color-interpolation-filters="sRGB">
<feFlood flood-opacity="0" result="BackgroundImageFix"/>
<feColorMatrix in="SourceAlpha" type="matrix" values="0 0 0 0 0 0 0 0 0 0 0 0 0 0 0 0 0 0 127 0" result="hardAlpha"/>
<feOffset dy="4"/>
<feGaussianBlur stdDeviation="2"/>
<feComposite in2="hardAlpha" operator="out"/>
<feColorMatrix type="matrix" values="0 0 0 0 0 0 0 0 0 0 0 0 0 0 0 0 0 0 0.25 0"/>
<feBlend mode="normal" in2="BackgroundImageFix" result="effect1_dropShadow_13_5031"/>
<feBlend mode="normal" in="SourceGraphic" in2="effect1_dropShadow_13_5031" result="shape"/>
</filter>
</defs>
</svg>
