<svg width="78" height="78" viewBox="0 0 78 78" fill="none" xmlns="http://www.w3.org/2000/svg">
<g filter="url(#filter0_d_13_5039)">
<path d="M37.4078 15.9704C38.372 15.4185 39.628 15.416 40.5914 15.9704C45.4384 18.7092 50.2868 21.4437 55.133 24.1841C56.0445 24.6976 56.6542 25.712 56.6449 26.7623V43.2398C56.6517 44.3336 55.9817 45.3722 55.0201 45.874C50.1891 48.5977 45.3605 51.3247 40.5303 54.0484C39.5461 54.6111 38.265 54.5678 37.3115 53.9589C35.8632 53.1193 34.4123 52.2839 32.9639 51.4451C32.6679 51.2686 32.3342 51.1282 32.1252 50.8412C32.31 50.5922 32.6403 50.5611 32.9087 50.4524C33.5133 50.2602 34.0686 49.9516 34.624 49.6521C34.7644 49.556 34.9359 49.5929 35.0705 49.6789C36.309 50.389 37.5366 51.1197 38.7792 51.8231C39.0443 51.9761 39.3127 51.7729 39.5393 51.6466C44.2801 48.9672 49.0266 46.298 53.7665 43.6178C53.9421 43.5333 54.0392 43.3469 54.0249 43.1545C54.0283 37.7189 54.0258 32.2823 54.0266 26.8467C54.0467 26.6285 53.9204 26.4278 53.723 26.3384C48.9087 23.6272 44.097 20.9118 39.2835 18.1999C39.2001 18.1426 39.1013 18.1118 39.0001 18.1117C38.8989 18.1115 38.8001 18.142 38.7165 18.1991C33.9031 20.9118 29.0921 23.6297 24.2787 26.3408C24.082 26.4303 23.95 26.6276 23.9734 26.8467C23.9742 32.2823 23.9734 37.7189 23.9734 43.1553C23.9651 43.2492 23.9857 43.3434 24.0325 43.4252C24.0793 43.507 24.15 43.5724 24.2352 43.6128C25.5197 44.3412 26.8058 45.0645 28.0911 45.7904C28.8152 46.1801 29.7043 46.4117 30.5021 46.1131C31.2061 45.8606 31.6996 45.1422 31.6862 44.3947C31.6928 38.9908 31.6828 33.5861 31.6911 28.183C31.6736 27.9431 31.9011 27.7449 32.1344 27.7675C32.7515 27.7634 33.3695 27.7592 33.9867 27.7692C34.2443 27.7634 34.4216 28.0217 34.3898 28.2634C34.3873 33.7015 34.3964 39.1397 34.3856 44.5778C34.3873 46.0271 33.7918 47.6041 32.4513 48.3132C30.7997 49.1688 28.7585 48.9873 27.1269 48.167C25.7144 47.462 24.3665 46.63 22.9791 45.8747C22.015 45.3757 21.3483 44.3329 21.3551 43.24V26.7623C21.345 25.6902 21.979 24.6574 22.9188 24.1515C27.749 21.4256 32.5784 18.6976 37.4078 15.9704Z" fill="#8CC84B"/>
<path d="M41.6216 27.3845C43.7283 27.2489 45.9835 27.3042 47.8792 28.342C49.347 29.1373 50.1607 30.8064 50.1866 32.437C50.1456 32.657 49.9157 32.7783 49.7057 32.7632C49.0945 32.7624 48.4831 32.7715 47.8719 32.759C47.6126 32.769 47.4619 32.5299 47.4294 32.3007C47.2537 31.5205 46.8283 30.7478 46.0939 30.3715C44.9666 29.8071 43.6596 29.8355 42.4303 29.8473C41.533 29.8949 40.568 29.9726 39.8078 30.5003C39.2241 30.9 39.0468 31.707 39.2551 32.3568C39.4515 32.8234 39.9902 32.974 40.4309 33.1128C42.9697 33.7768 45.66 33.7107 48.1503 34.5845C49.1813 34.9408 50.1899 35.6333 50.5428 36.7128C51.0044 38.1596 50.8021 39.889 49.7727 41.0504C48.938 42.0063 47.7222 42.5265 46.5096 42.809C44.8964 43.1687 43.2223 43.1779 41.5841 43.0182C40.0436 42.8426 38.4406 42.4378 37.2514 41.3883C36.2345 40.5053 35.7378 39.1295 35.7871 37.8017C35.7989 37.5775 36.0222 37.4211 36.237 37.4395C36.8525 37.4345 37.468 37.4329 38.0835 37.4403C38.3294 37.4227 38.5116 37.6352 38.5242 37.8669C38.6378 38.6103 38.9172 39.3905 39.5654 39.8312C40.8163 40.6383 42.386 40.583 43.8184 40.6056C45.0051 40.5529 46.3373 40.537 47.3057 39.7527C47.8166 39.3053 47.968 38.5568 47.8299 37.9129C47.6803 37.3693 47.1116 37.116 46.6233 36.9503C44.117 36.1575 41.3967 36.4452 38.9147 35.5486C37.9071 35.1926 36.9327 34.5193 36.5456 33.4841C36.0054 32.019 36.2529 30.2068 37.3902 29.0845C38.499 27.9682 40.0997 27.5383 41.6216 27.3844V27.3845Z" fill="#8CC84B"/>
</g>
<defs>
<filter id="filter0_d_13_5039" x="0" y="0" width="78" height="78" filterUnits="userSpaceOnUse" color-interpolation-filters="sRGB">
<feFlood flood-opacity="0" result="BackgroundImageFix"/>
<feColorMatrix in="SourceAlpha" type="matrix" values="0 0 0 0 0 0 0 0 0 0 0 0 0 0 0 0 0 0 127 0" result="hardAlpha"/>
<feOffset dy="4"/>
<feGaussianBlur stdDeviation="2"/>
<feComposite in2="hardAlpha" operator="out"/>
<feColorMatrix type="matrix" values="0 0 0 0 0 0 0 0 0 0 0 0 0 0 0 0 0 0 0.25 0"/>
<feBlend mode="normal" in2="BackgroundImageFix" result="effect1_dropShadow_13_5039"/>
<feBlend mode="normal" in="SourceGraphic" in2="effect1_dropShadow_13_5039" result="shape"/>
</filter>
</defs>
</svg>
