<svg width="79" height="78" viewBox="0 0 79 78" fill="none" xmlns="http://www.w3.org/2000/svg">
<g filter="url(#filter0_d_13_5028)">
<path fill-rule="evenodd" clip-rule="evenodd" d="M39.1955 44.854C49.9944 44.854 58.7486 40.442 58.7486 35C58.7486 29.558 49.9944 25.1461 39.1955 25.1461C28.3969 25.1461 19.6425 29.558 19.6425 35C19.6425 40.442 28.3969 44.854 39.1955 44.854Z" fill="#6E81B6"/>
<path fill-rule="evenodd" clip-rule="evenodd" d="M43.1582 38.1849L44.1281 33.221C44.347 32.1006 44.165 31.2649 43.5873 30.7368C43.0277 30.2259 42.0777 29.9774 40.6832 29.9774H39.0035L39.4839 27.518C39.4929 27.4722 39.4916 27.425 39.4801 27.3798C39.4686 27.3346 39.4472 27.2924 39.4174 27.2564C39.3876 27.2204 39.3501 27.1914 39.3077 27.1715C39.2653 27.1516 39.219 27.1413 39.1721 27.1413H36.8538C36.7015 27.1413 36.5708 27.2487 36.5417 27.3973L35.5115 32.6672C35.4179 32.0742 35.1871 31.5645 34.8178 31.1438C34.1378 30.3698 33.0622 29.9774 31.6207 29.9774H27.1274C26.9751 29.9774 26.8444 30.0848 26.8153 30.2332L24.7306 40.9004C24.7124 40.9933 24.7367 41.0887 24.7973 41.1616C24.8576 41.2348 24.9474 41.2768 25.0427 41.2768H27.3792C27.5314 41.2768 27.6622 41.1694 27.6913 41.0206L28.1956 38.4405H29.9349C30.8475 38.4405 31.6145 38.3422 32.2132 38.1485C32.8253 37.9505 33.3888 37.6148 33.8853 37.1525C34.2865 36.7859 34.618 36.3754 34.8731 35.9327L34.4568 38.0638C34.4386 38.1567 34.4629 38.2527 34.5234 38.3251C34.5837 38.3982 34.6738 38.4403 34.7689 38.4403H37.0871C37.2394 38.4403 37.3702 38.3328 37.3993 38.1845L38.5434 32.3291H40.1341C40.812 32.3291 41.0106 32.4634 41.0648 32.521C41.1137 32.5737 41.2154 32.7592 41.1012 33.3439L40.1791 38.0636C40.1702 38.1094 40.1717 38.1565 40.1832 38.2017C40.1948 38.2468 40.2163 38.2889 40.2461 38.3248C40.2759 38.3608 40.3133 38.3897 40.3557 38.4097C40.3981 38.4296 40.4443 38.44 40.4912 38.4401H42.8463C42.92 38.4402 42.9915 38.4148 43.0484 38.3683C43.1053 38.3217 43.1441 38.2569 43.1582 38.1849ZM32.4101 34.0834C32.2645 34.8276 31.9902 35.3583 31.5944 35.6609C31.1925 35.9691 30.5496 36.1252 29.6835 36.1252H28.6479L29.3967 32.2931H30.7357C31.7193 32.2931 32.1155 32.5022 32.2747 32.6773C32.4953 32.9205 32.5421 33.4069 32.4101 34.0834ZM52.9234 31.1438C52.2436 30.3698 51.1681 29.9774 49.7265 29.9774H45.2332C45.0807 29.9774 44.9502 30.0848 44.9211 30.2332L42.8367 40.9004C42.8182 40.9933 42.8426 41.0887 42.9031 41.1616C42.9636 41.2345 43.0537 41.2768 43.1483 41.2768H45.485C45.6375 41.2768 45.768 41.1694 45.7971 41.0206L46.3014 38.4405H48.0409C48.9538 38.4405 49.7201 38.3422 50.319 38.1485C50.9314 37.9505 51.4948 37.6148 51.9911 37.1525C52.4054 36.7742 52.7461 36.3488 53.0043 35.8896C53.2625 35.4304 53.4476 34.9183 53.5556 34.3672C53.8212 33.0079 53.6086 31.9235 52.9234 31.1438ZM50.6486 34.0834C50.5027 34.8276 50.2285 35.3583 49.8331 35.6609C49.4309 35.9691 48.7881 36.1252 47.9222 36.1252H46.8864L47.635 32.2931H48.9741C49.9577 32.2931 50.354 32.5022 50.5134 32.6773C50.7335 32.9205 50.7805 33.4069 50.6486 34.0834Z" fill="white"/>
<path fill-rule="evenodd" clip-rule="evenodd" d="M30.6692 31.977C31.5568 31.977 32.1486 32.1399 32.4444 32.4658C32.7399 32.7917 32.8104 33.3513 32.6558 34.1439C32.494 34.9694 32.1829 35.5587 31.7218 35.9118C31.2608 36.265 30.559 36.4413 29.617 36.4413H28.1956L29.068 31.977H30.6692ZM24.976 40.9607H27.3125L27.8669 38.1248H29.8684C30.7515 38.1248 31.4781 38.0324 32.0483 37.8478C32.6186 37.6633 33.1372 37.3541 33.6037 36.9198C33.9952 36.5622 34.312 36.1672 34.5546 35.7355C34.797 35.3038 34.9691 34.8277 35.071 34.3069C35.3183 33.0423 35.1318 32.0574 34.5118 31.352C33.8921 30.6464 32.9059 30.2937 31.5542 30.2937H27.0609L24.976 40.9607ZM36.7871 27.4576H39.1054L38.5512 30.2937H40.6167C41.9157 30.2937 42.8125 30.519 43.3057 30.9697C43.799 31.4204 43.9467 32.151 43.7495 33.1609L42.7797 38.1248H40.4245L41.3466 33.4049C41.4513 32.8679 41.413 32.5018 41.2307 32.3064C41.0484 32.1112 40.6604 32.0134 40.0675 32.0134H38.2147L37.0204 38.1248H34.7022L36.7871 27.4576ZM48.9077 31.977C49.7953 31.977 50.3869 32.1399 50.6829 32.4658C50.9785 32.7917 51.0487 33.3513 50.894 34.1439C50.7328 34.9694 50.4216 35.5587 49.9603 35.9118C49.4995 36.265 48.7975 36.4413 47.856 36.4413H46.4345L47.3068 31.977H48.9077ZM43.214 40.9607H45.5507L46.1049 38.1248H48.1064C48.9898 38.1248 49.7163 38.0324 50.2866 37.8478C50.8569 37.6633 51.3754 37.3541 51.8419 36.9198C52.2335 36.5622 52.5503 36.1672 52.7927 35.7355C53.035 35.3038 53.2074 34.8277 53.3095 34.3069C53.5566 33.0423 53.37 32.0574 52.7503 31.352C52.1302 30.6464 51.1442 30.2937 49.7925 30.2937H45.2992L43.214 40.9607Z" fill="black"/>
</g>
<defs>
<filter id="filter0_d_13_5028" x="0" y="0" width="78.3911" height="78" filterUnits="userSpaceOnUse" color-interpolation-filters="sRGB">
<feFlood flood-opacity="0" result="BackgroundImageFix"/>
<feColorMatrix in="SourceAlpha" type="matrix" values="0 0 0 0 0 0 0 0 0 0 0 0 0 0 0 0 0 0 127 0" result="hardAlpha"/>
<feOffset dy="4"/>
<feGaussianBlur stdDeviation="2"/>
<feComposite in2="hardAlpha" operator="out"/>
<feColorMatrix type="matrix" values="0 0 0 0 0 0 0 0 0 0 0 0 0 0 0 0 0 0 0.25 0"/>
<feBlend mode="normal" in2="BackgroundImageFix" result="effect1_dropShadow_13_5028"/>
<feBlend mode="normal" in="SourceGraphic" in2="effect1_dropShadow_13_5028" result="shape"/>
</filter>
</defs>
</svg>
