<svg width="79" height="78" viewBox="0 0 79 78" fill="none" xmlns="http://www.w3.org/2000/svg">
<g filter="url(#filter0_d_13_5027)">
<path d="M39.1956 38.4285C41.0997 38.4285 42.6432 36.8935 42.6432 35C42.6432 33.1065 41.0997 31.5715 39.1956 31.5715C37.2914 31.5715 35.7479 33.1065 35.7479 35C35.7479 36.8935 37.2914 38.4285 39.1956 38.4285Z" fill="#61DAFB"/>
<path fill-rule="evenodd" clip-rule="evenodd" d="M22.9846 33.196C22.2027 33.8978 21.9457 34.5098 21.9457 35C21.9457 35.4901 22.2027 36.1021 22.9846 36.804C23.7659 37.5054 24.967 38.1942 26.5579 38.7983C29.7309 40.0031 34.1987 40.7743 39.1955 40.7743C44.1924 40.7743 48.6601 40.0031 51.8331 38.7983C53.4241 38.1942 54.6252 37.5054 55.4065 36.804C56.1883 36.1021 56.4453 35.4901 56.4453 35C56.4453 34.5098 56.1883 33.8978 55.4065 33.196C54.6252 32.4946 53.4241 31.8057 51.8331 31.2016C48.6601 29.9968 44.1924 29.2256 39.1955 29.2256C34.1987 29.2256 29.7309 29.9968 26.5579 31.2016C24.967 31.8057 23.7659 32.4946 22.9846 33.196ZM25.6705 28.8644C29.1931 27.5269 33.9752 26.7256 39.1955 26.7256C44.4158 26.7256 49.198 27.5269 52.7206 28.8644C54.4775 29.5315 55.9856 30.3562 57.0765 31.3356C58.167 32.3145 58.9453 33.5504 58.9453 35C58.9453 36.4495 58.167 37.6854 57.0765 38.6643C55.9856 39.6437 54.4775 40.4684 52.7206 41.1355C49.198 42.473 44.4158 43.2743 39.1955 43.2743C33.9752 43.2743 29.1931 42.473 25.6705 41.1355C23.9136 40.4684 22.4055 39.6437 21.3145 38.6643C20.2241 37.6854 19.4457 36.4495 19.4457 35C19.4457 33.5504 20.2241 32.3145 21.3145 31.3356C22.4055 30.3562 23.9136 29.5315 25.6705 28.8644Z" fill="#61DAFB"/>
<path fill-rule="evenodd" clip-rule="evenodd" d="M32.6712 20.1395C31.6703 19.8175 31.0054 19.9006 30.5732 20.1487C30.141 20.3968 29.7363 20.9279 29.5163 21.9509C29.2962 22.9739 29.2969 24.3518 29.5661 26.0229C30.1031 29.3561 31.6646 33.5877 34.1623 37.8897C36.66 42.1918 39.5644 45.6524 42.1986 47.7815C43.5193 48.8489 44.7189 49.5384 45.7199 49.8604C46.7208 50.1824 47.3856 50.0994 47.8178 49.8512C48.25 49.6031 48.6547 49.072 48.8748 48.0491C49.0948 47.026 49.0942 45.6481 48.8249 43.977C48.2879 40.6438 46.7264 36.4123 44.2287 32.1102C41.731 27.8081 38.8267 24.3475 36.1924 22.2184C34.8718 21.1511 33.6721 20.4615 32.6712 20.1395ZM37.7683 20.2829C40.6959 22.649 43.7859 26.3683 46.3968 30.8654C49.0077 35.3625 50.7017 39.8833 51.2985 43.5876C51.5962 45.4353 51.632 47.1474 51.3245 48.5772C51.0169 50.007 50.33 51.2916 49.073 52.0133C47.816 52.735 46.3539 52.6843 44.9549 52.2342C43.556 51.7842 42.0829 50.8972 40.6227 49.717C37.6951 47.3509 34.6052 43.6316 31.9943 39.1345C29.3834 34.6374 27.6893 30.1166 27.0925 26.4123C26.7949 24.5646 26.759 22.8525 27.0666 21.4227C27.3741 19.9929 28.061 18.7084 29.318 17.9867C30.575 17.2649 32.0371 17.3157 33.4361 17.7657C34.835 18.2158 36.3081 19.1027 37.7683 20.2829Z" fill="#61DAFB"/>
<path fill-rule="evenodd" clip-rule="evenodd" d="M48.8748 21.9509C48.6547 20.9279 48.25 20.3968 47.8178 20.1487C47.3856 19.9006 46.7208 19.8175 45.7199 20.1395C44.7189 20.4615 43.5193 21.1511 42.1986 22.2185C39.5644 24.3475 36.66 27.8081 34.1623 32.1102C31.6647 36.4123 30.1031 40.6438 29.5661 43.977C29.2969 45.6481 29.2962 47.026 29.5163 48.0491C29.7363 49.072 30.141 49.6031 30.5732 49.8512C31.0054 50.0994 31.6703 50.1824 32.6712 49.8604C33.6721 49.5384 34.8718 48.8489 36.1924 47.7815C38.8267 45.6524 41.731 42.1918 44.2287 37.8897C46.7264 33.5877 48.2879 29.3561 48.8249 26.0229C49.0942 24.3518 49.0948 22.9739 48.8748 21.9509ZM51.2985 26.4123C50.7017 30.1166 49.0077 34.6374 46.3968 39.1345C43.7859 43.6316 40.6959 47.3509 37.7683 49.717C36.3081 50.8973 34.835 51.7842 33.4361 52.2342C32.0371 52.6843 30.575 52.735 29.318 52.0133C28.061 51.2916 27.3741 50.007 27.0666 48.5772C26.7591 47.1474 26.7949 45.4353 27.0926 43.5876C27.6894 39.8833 29.3834 35.3625 31.9943 30.8654C34.6052 26.3683 37.6952 22.649 40.6227 20.2829C42.083 19.1027 43.5561 18.2158 44.955 17.7657C46.3539 17.3157 47.816 17.265 49.073 17.9867C50.3301 18.7084 51.0169 19.9929 51.3245 21.4228C51.632 22.8525 51.5962 24.5646 51.2985 26.4123Z" fill="#61DAFB"/>
</g>
<defs>
<filter id="filter0_d_13_5027" x="0" y="0" width="78.3911" height="78" filterUnits="userSpaceOnUse" color-interpolation-filters="sRGB">
<feFlood flood-opacity="0" result="BackgroundImageFix"/>
<feColorMatrix in="SourceAlpha" type="matrix" values="0 0 0 0 0 0 0 0 0 0 0 0 0 0 0 0 0 0 127 0" result="hardAlpha"/>
<feOffset dy="4"/>
<feGaussianBlur stdDeviation="2"/>
<feComposite in2="hardAlpha" operator="out"/>
<feColorMatrix type="matrix" values="0 0 0 0 0 0 0 0 0 0 0 0 0 0 0 0 0 0 0.25 0"/>
<feBlend mode="normal" in2="BackgroundImageFix" result="effect1_dropShadow_13_5027"/>
<feBlend mode="normal" in="SourceGraphic" in2="effect1_dropShadow_13_5027" result="shape"/>
</filter>
</defs>
</svg>
