<svg width="78" height="78" viewBox="0 0 78 78" fill="none" xmlns="http://www.w3.org/2000/svg">
<g filter="url(#filter0_d_13_5029)">
<path d="M53.0419 37.1833C51.6852 37.1904 50.5061 37.5171 49.5187 38.0002C49.1565 37.2827 48.7942 36.6434 48.7303 36.1746C48.6592 35.6277 48.574 35.2938 48.6592 34.6403C48.7445 33.9868 49.128 33.0563 49.1209 32.9853C49.1138 32.9143 49.0357 32.5804 48.2544 32.5733C47.473 32.5662 46.7982 32.7225 46.7201 32.9285C46.6419 33.1345 46.4928 33.6033 46.3933 34.0863C46.2584 34.7966 44.8306 37.3325 44.0137 38.6608C43.7509 38.1422 43.5236 37.6876 43.4739 37.3254C43.4029 36.7784 43.3176 36.4446 43.4029 35.7911C43.4881 35.1376 43.8717 34.207 43.8646 34.136C43.8575 34.065 43.7793 33.7311 42.998 33.724C42.2166 33.7169 41.5418 33.8732 41.4637 34.0792C41.3856 34.2852 41.3003 34.7682 41.1369 35.237C40.9736 35.7058 39.077 39.9393 38.5798 41.0332C38.3241 41.5944 38.1039 42.0419 37.9476 42.3473C37.9476 42.3473 37.9405 42.3686 37.9192 42.4041C37.7842 42.667 37.7061 42.809 37.7061 42.809C37.7061 42.809 37.7061 42.809 37.7061 42.8161C37.5995 43.0079 37.4859 43.1855 37.4291 43.1855C37.3864 43.1855 37.3083 42.6741 37.4433 41.978C37.7274 40.5076 38.4022 38.2204 38.3951 38.1422C38.3951 38.0996 38.523 37.7018 37.9547 37.4958C37.4007 37.2898 37.2018 37.6308 37.152 37.6308C37.1023 37.6308 37.0668 37.7515 37.0668 37.7515C37.0668 37.7515 37.6848 35.1802 35.8877 35.1802C34.7654 35.1802 33.2169 36.409 32.4497 37.5171C31.9667 37.78 30.9367 38.3411 29.8357 38.9449C29.4167 39.1793 28.9834 39.4137 28.5785 39.6339C28.5501 39.6055 28.5217 39.57 28.4932 39.5416C26.3197 37.2188 22.2992 35.578 22.4697 32.4597C22.5336 31.3231 22.9243 28.3398 30.1909 24.7172C36.1718 21.7693 40.931 22.5862 41.7549 24.3975C42.9341 26.9831 39.2049 31.7849 33.0251 32.481C30.6668 32.7438 29.4309 31.8346 29.1183 31.4936C28.7916 31.1385 28.7418 31.1171 28.6211 31.1882C28.4222 31.2947 28.5501 31.6144 28.6211 31.7991C28.8058 32.2821 29.5658 33.1345 30.8515 33.5535C31.988 33.9229 34.7512 34.1289 38.0968 32.8361C41.8402 31.3871 44.7667 27.3596 43.9072 23.9855C43.0477 20.5618 37.3651 19.4324 31.988 21.3431C28.7916 22.4797 25.3252 24.2697 22.832 26.5995C19.8699 29.3698 19.4011 31.7777 19.5929 32.7864C20.2819 36.3664 25.2187 38.6963 27.1934 40.4223C27.0939 40.4792 27.0016 40.5289 26.9234 40.5715C25.9361 41.0616 22.1714 43.0292 21.2338 45.1105C20.1683 47.4687 21.4042 49.1593 22.2211 49.3866C24.757 50.0898 27.3638 48.8254 28.7632 46.7371C30.1625 44.6488 29.992 41.9353 29.3456 40.6923C29.3385 40.6781 29.3314 40.6639 29.3172 40.6497C29.5729 40.5005 29.8357 40.3442 30.0915 40.195C30.5958 39.8967 31.093 39.6197 31.5192 39.3924C31.2777 40.053 31.1001 40.8414 31.0149 41.978C30.9083 43.3134 31.4553 45.0465 32.1727 45.7284C32.4923 46.0268 32.8688 46.0339 33.1103 46.0339C33.9485 46.0339 34.325 45.3378 34.7441 44.5138C35.2555 43.5051 35.7172 42.3331 35.7172 42.3331C35.7172 42.3331 35.1418 45.5011 36.7045 45.5011C37.2728 45.5011 37.8482 44.7624 38.1039 44.3859C38.1039 44.393 38.1039 44.393 38.1039 44.393C38.1039 44.393 38.1181 44.3717 38.1465 44.322C38.2033 44.2297 38.2388 44.1728 38.2388 44.1728C38.2388 44.1728 38.2388 44.1657 38.2388 44.1586C38.4661 43.7609 38.9776 42.8587 39.7376 41.36C40.7179 39.4279 41.6626 37.0128 41.6626 37.0128C41.6626 37.0128 41.7478 37.6024 42.0391 38.5826C42.2095 39.158 42.5647 39.7902 42.8488 40.401C42.6215 40.7207 42.4795 40.8983 42.4795 40.8983C42.4795 40.8983 42.4794 40.8983 42.4866 40.9054C42.3019 41.1469 42.103 41.4097 41.8828 41.6654C41.1085 42.5888 40.1851 43.6472 40.0573 43.9526C39.9081 44.3149 39.9436 44.5777 40.2277 44.7908C40.4337 44.9471 40.8031 44.9684 41.1796 44.9471C41.8757 44.8974 42.3658 44.7269 42.6073 44.6203C42.9838 44.4854 43.4242 44.2794 43.8362 43.974C44.5962 43.4128 45.0579 42.6101 45.0153 41.5518C44.994 40.9693 44.8022 40.3868 44.5678 39.8399C44.6388 39.7404 44.7028 39.641 44.7738 39.5416C45.9742 37.7871 46.9047 35.8621 46.9047 35.8621C46.9047 35.8621 46.99 36.4517 47.2812 37.4319C47.4233 37.9291 47.7145 38.469 47.9702 38.9946C46.8408 39.9109 46.1447 40.9764 45.8961 41.6725C45.4486 42.9653 45.7966 43.5478 46.4572 43.6827C46.7556 43.7466 47.1818 43.6046 47.4943 43.4696C47.8921 43.3418 48.3609 43.1216 48.8084 42.7948C49.5684 42.2337 50.3001 41.4523 50.2575 40.3939C50.2361 39.9109 50.1083 39.435 49.9307 38.9733C50.8896 38.5755 52.1256 38.3553 53.7025 38.54C57.0836 38.9378 57.7513 41.0474 57.6235 41.9353C57.4956 42.8232 56.7853 43.3062 56.5509 43.4554C56.3165 43.6046 56.2384 43.6543 56.2597 43.7609C56.2881 43.9171 56.4017 43.91 56.6006 43.8816C56.8777 43.8319 58.3764 43.1642 58.4404 41.5305C58.5469 39.4421 56.558 37.162 53.0419 37.1833ZM26.9589 45.9771C25.8366 47.1988 24.2739 47.6605 23.5991 47.2698C22.8746 46.8507 23.1587 45.0465 24.5368 43.7538C25.3749 42.9653 26.4546 42.2337 27.172 41.7862C27.3354 41.6867 27.5769 41.5447 27.8682 41.3671C27.9179 41.3387 27.9463 41.3245 27.9463 41.3245C28.0031 41.2889 28.0599 41.2534 28.1168 41.2179C28.6211 43.0647 28.1381 44.6914 26.9589 45.9771ZM35.1276 40.4223C34.737 41.3742 33.9201 43.8106 33.4229 43.6756C32.9967 43.562 32.7339 41.7151 33.3376 39.8896C33.6431 38.9733 34.2895 37.8794 34.6659 37.4532C35.2768 36.7713 35.9516 36.544 36.115 36.821C36.321 37.1833 35.3691 39.8257 35.1276 40.4223ZM41.8686 43.6472C41.7052 43.7324 41.5489 43.7893 41.4779 43.7466C41.4282 43.7182 41.5489 43.6046 41.5489 43.6046C41.5489 43.6046 42.3942 42.6954 42.7281 42.2834C42.9198 42.0419 43.1472 41.7578 43.3887 41.4381C43.3887 41.4665 43.3887 41.502 43.3887 41.5305C43.3887 42.6172 42.3374 43.3489 41.8686 43.6472ZM47.0681 42.461C46.9474 42.3757 46.9687 42.0916 47.3736 41.2037C47.5298 40.8556 47.8992 40.2732 48.5314 39.712C48.6024 39.9393 48.6521 40.1595 48.645 40.3655C48.6379 41.7364 47.6577 42.2479 47.0681 42.461Z" fill="#CD6799"/>
</g>
<defs>
<filter id="filter0_d_13_5029" x="0" y="0" width="78" height="78" filterUnits="userSpaceOnUse" color-interpolation-filters="sRGB">
<feFlood flood-opacity="0" result="BackgroundImageFix"/>
<feColorMatrix in="SourceAlpha" type="matrix" values="0 0 0 0 0 0 0 0 0 0 0 0 0 0 0 0 0 0 127 0" result="hardAlpha"/>
<feOffset dy="4"/>
<feGaussianBlur stdDeviation="2"/>
<feComposite in2="hardAlpha" operator="out"/>
<feColorMatrix type="matrix" values="0 0 0 0 0 0 0 0 0 0 0 0 0 0 0 0 0 0 0.25 0"/>
<feBlend mode="normal" in2="BackgroundImageFix" result="effect1_dropShadow_13_5029"/>
<feBlend mode="normal" in="SourceGraphic" in2="effect1_dropShadow_13_5029" result="shape"/>
</filter>
</defs>
</svg>
