<svg width="79" height="78" viewBox="0 0 79 78" fill="none" xmlns="http://www.w3.org/2000/svg">
<g filter="url(#filter0_d_13_5034)">
<path d="M55.6633 45.5954C53.5356 45.5419 51.8865 45.7567 50.5035 46.3472C50.1045 46.5082 49.4661 46.5084 49.4129 47.0185C49.6257 47.2333 49.6523 47.5824 49.8385 47.8776C50.158 48.4145 50.7161 49.1395 51.2215 49.5155C51.78 49.945 52.3387 50.3745 52.9236 50.7504C53.961 51.3948 55.1314 51.7706 56.1421 52.415C56.7274 52.7906 57.3122 53.2742 57.8974 53.6768C58.19 53.8913 58.376 54.2407 58.7486 54.3748V54.2944C58.5622 54.0526 58.509 53.7037 58.323 53.4352C58.0573 53.1667 57.791 52.925 57.525 52.6565C56.7537 51.6096 55.7963 50.6967 54.759 49.945C53.908 49.3543 52.046 48.5489 51.7003 47.5554C51.7003 47.5554 51.6736 47.5287 51.6471 47.5018C52.2322 47.4481 52.9236 47.2333 53.4824 47.0722C54.3866 46.8304 55.2111 46.8843 56.1421 46.6426C56.5675 46.5352 56.9931 46.4009 57.4186 46.2667V46.0252C56.9401 45.5419 56.5943 44.8976 56.0889 44.4411C54.7324 43.2595 53.2428 42.1052 51.7003 41.1387C50.8757 40.6017 49.8117 40.2526 48.9341 39.7963C48.6152 39.6351 48.083 39.5547 47.897 39.2862C47.418 38.6956 47.152 37.9171 46.8064 37.2189C46.0353 35.7421 45.2903 34.1045 44.6253 32.5474C44.1468 31.5002 43.8542 30.453 43.269 29.4867C40.5295 24.9225 37.5506 22.1571 32.976 19.4453C31.9917 18.8816 30.8215 18.6399 29.5714 18.3447C28.9067 18.3177 28.2416 18.2641 27.5767 18.2371C27.1511 18.0492 26.7255 17.5392 26.3531 17.2975C24.8374 16.3309 20.9273 14.2369 19.8103 17.0023C19.0921 18.7473 20.8743 20.4655 21.4858 21.3517C21.9383 21.9691 22.5232 22.6671 22.8424 23.3653C23.0286 23.8214 23.0816 24.305 23.2678 24.7882C23.6936 25.9692 24.0923 27.2851 24.651 28.386C24.9436 28.9497 25.2627 29.5403 25.6351 30.0504C25.8479 30.3456 26.2201 30.48 26.3001 30.9632C25.9278 31.5002 25.9011 32.3058 25.6881 32.9769C24.7307 36.0108 25.1032 39.7695 26.4595 41.9978C26.885 42.6688 27.8958 44.1459 29.2522 43.5819C30.4492 43.0987 30.1832 41.5683 30.5287 40.2259C30.6088 39.9034 30.5556 39.6889 30.7151 39.4741V39.528C31.0875 40.2795 31.4597 41.0046 31.8055 41.7563C32.6302 43.0717 34.0663 44.4411 35.2631 45.3541C35.9017 45.8371 36.4069 46.6695 37.2049 46.9648V46.8841H37.1516C36.992 46.6425 36.7526 46.5352 36.5399 46.3471C36.0613 45.8641 35.5291 45.2733 35.1569 44.7363C34.04 43.2327 33.0556 41.5682 32.1779 39.8499C31.7525 39.0178 31.3799 38.1049 31.0343 37.2726C30.8745 36.9501 30.8745 36.4671 30.6087 36.3061C30.2097 36.8967 29.6246 37.4069 29.332 38.1317C28.8269 39.2862 28.7736 40.7091 28.5874 42.1856C28.481 42.2128 28.534 42.1856 28.4808 42.2396C27.6299 42.0245 27.3373 41.1387 27.018 40.3869C26.22 38.4808 26.087 35.42 26.7787 33.2186C26.9649 32.6547 27.7629 30.8828 27.4437 30.3458C27.2841 29.8356 26.752 29.5403 26.4595 29.1376C26.1139 28.6275 25.7413 27.9833 25.5021 27.4193C24.8637 25.9158 24.5445 24.2512 23.853 22.7477C23.5338 22.0495 22.9755 21.3249 22.5232 20.6804C22.0179 19.9556 21.4593 19.4453 21.0603 18.5862C20.9275 18.291 20.7411 17.8077 20.9539 17.4855C21.0071 17.2707 21.1134 17.1903 21.3263 17.1366C21.6721 16.841 22.6563 17.217 23.0018 17.3781C23.986 17.7805 24.8105 18.1567 25.6351 18.7205C26.0073 18.989 26.4063 19.4991 26.885 19.6334H27.4436C28.2948 19.8212 29.2521 19.6871 30.0501 19.9286C31.4599 20.3849 32.7364 21.0562 33.8802 21.7812C37.3645 24.0095 40.2367 27.1777 42.1785 30.9632C42.4977 31.5805 42.6306 32.1447 42.9232 32.7888C43.4819 34.1045 44.1734 35.4469 44.7317 36.7356C45.2903 37.9973 45.8221 39.2862 46.6201 40.3334C47.0192 40.8969 48.6149 41.1924 49.3331 41.4878C49.8651 41.7293 50.6897 41.9443 51.1683 42.2395C52.0726 42.803 52.9768 43.4478 53.828 44.065C54.2536 44.3873 55.5833 45.0585 55.6633 45.5954Z" fill="#00546B"/>
<path d="M28.5339 22.2642C28.0818 22.2642 27.7628 22.3182 27.4436 22.3986V22.4523H27.4968C27.7097 22.882 28.0818 23.1773 28.3477 23.5531C28.5606 23.9825 28.7467 24.4123 28.9596 24.8419C28.9861 24.8149 29.0127 24.7882 29.0127 24.7882C29.3852 24.5196 29.5713 24.0901 29.5713 23.4457C29.4117 23.2579 29.3851 23.0699 29.2521 22.882C29.0926 22.6133 28.7467 22.4792 28.5339 22.2642Z" fill="#00546B"/>
</g>
<defs>
<filter id="filter0_d_13_5034" x="0" y="0" width="78.3911" height="78" filterUnits="userSpaceOnUse" color-interpolation-filters="sRGB">
<feFlood flood-opacity="0" result="BackgroundImageFix"/>
<feColorMatrix in="SourceAlpha" type="matrix" values="0 0 0 0 0 0 0 0 0 0 0 0 0 0 0 0 0 0 127 0" result="hardAlpha"/>
<feOffset dy="4"/>
<feGaussianBlur stdDeviation="2"/>
<feComposite in2="hardAlpha" operator="out"/>
<feColorMatrix type="matrix" values="0 0 0 0 0 0 0 0 0 0 0 0 0 0 0 0 0 0 0.25 0"/>
<feBlend mode="normal" in2="BackgroundImageFix" result="effect1_dropShadow_13_5034"/>
<feBlend mode="normal" in="SourceGraphic" in2="effect1_dropShadow_13_5034" result="shape"/>
</filter>
</defs>
</svg>
