<svg width="78" height="78" viewBox="0 0 78 78" fill="none" xmlns="http://www.w3.org/2000/svg">
<g filter="url(#filter0_d_13_5033)">
<path d="M19.9256 29.1796C19.9256 29.1796 18.9784 28.4969 20.115 27.5852L22.7632 25.2172C22.7632 25.2172 23.5209 24.42 24.3221 25.1146L48.7595 43.6164V52.4884C48.7595 52.4884 48.7477 53.8815 46.9599 53.7276L19.9256 29.1796Z" fill="#2489CA"/>
<path d="M26.2244 34.8984L19.9256 40.6249C19.9256 40.6249 19.2783 41.1064 19.9256 41.9668L22.85 44.6268C22.85 44.6268 23.5446 45.3727 24.5707 44.5242L31.2484 39.4607L26.2244 34.8984Z" fill="#1070B3"/>
<path d="M37.2828 34.9457L48.8346 26.125L48.7596 17.3003C48.7596 17.3003 48.2662 15.3743 46.6205 16.3768L31.2484 30.3676L37.2828 34.9457Z" fill="#0877B9"/>
<path d="M46.9599 53.7395C47.6308 54.4262 48.4438 54.2012 48.4438 54.2012L57.4461 49.7652C58.5985 48.9798 58.4367 48.005 58.4367 48.005V21.5153C58.4367 20.351 57.2448 19.9485 57.2448 19.9485L49.4423 16.1874C47.7374 15.1336 46.6205 16.3768 46.6205 16.3768C46.6205 16.3768 48.0571 15.3428 48.7596 17.3003V52.3266C48.7596 52.5673 48.7083 52.8041 48.6057 53.0172C48.4004 53.4316 47.9545 53.8184 46.8849 53.6566L46.9599 53.7395Z" fill="#3C99D4"/>
</g>
<defs>
<filter id="filter0_d_13_5033" x="0" y="0" width="78" height="78" filterUnits="userSpaceOnUse" color-interpolation-filters="sRGB">
<feFlood flood-opacity="0" result="BackgroundImageFix"/>
<feColorMatrix in="SourceAlpha" type="matrix" values="0 0 0 0 0 0 0 0 0 0 0 0 0 0 0 0 0 0 127 0" result="hardAlpha"/>
<feOffset dy="4"/>
<feGaussianBlur stdDeviation="2"/>
<feComposite in2="hardAlpha" operator="out"/>
<feColorMatrix type="matrix" values="0 0 0 0 0 0 0 0 0 0 0 0 0 0 0 0 0 0 0.25 0"/>
<feBlend mode="normal" in2="BackgroundImageFix" result="effect1_dropShadow_13_5033"/>
<feBlend mode="normal" in="SourceGraphic" in2="effect1_dropShadow_13_5033" result="shape"/>
</filter>
</defs>
</svg>
